# xmcd
#
# Track frame offsets:
#	182
#	11975
#	22812
#	34495
#	48135
#	61745
#	76520
#	87967
#	101342
#	110570
#	129995
#	141362
#	159282
#	171755
#	184950
#	196267
#	222297
#	240277
#
# Disc length: 3322
#
# Revision: 1
# Processed by: cddbd v1.5.1PL0 Copyright (c) Steve Scherf et al.
# Submitted via: dBpowerAMP V4.0
# Normalized: r0:DSETVAR1,TDELIM( - )
#
DISCID=df0cf812
DTITLE=Various Artist - Rhythm'n'Blues vol.1
DYEAR=1900
DGENRE=Blues
TTITLE0=Sam and Dave - Soul sister brown sugar
TTITLE1=James Brown - Papa's got a brand new bag
TTITLE2=The Drifters - Save the last dance for me
TTITLE3=Ben E. King - Stand by me
TTITLE4=Eddy Floyd - Knock on wood
TTITLE5=George Mc Crae - Rock your baby
TTITLE6=The Tams - Hey girl don't bother me
TTITLE7=Percy Sledge - When a man loves a woman
TTITLE8=Gladys Knight - Every beat of my heart
TTITLE9=James Brown - Sex machine
TTITLE10=The Drifters - Up on the roof
TTITLE11=Brook Benton - Rainy night in Georgia
TTITLE12=The Kingsmen - Louie Louie
TTITLE13=Ben E. King - Spanish Harlem
TTITLE14=Gene Chandler - Duke of earl
TTITLE15=Ramsey Lewis - The in crowd
TTITLE16=Dobie Gray - Driftaway
TTITLE17=Al Jarreau - Ain't no sunshine
EXTD=
EXTT0=
EXTT1=
EXTT2=
EXTT3=
EXTT4=
EXTT5=
EXTT6=
EXTT7=
EXTT8=
EXTT9=
EXTT10=
EXTT11=
EXTT12=
EXTT13=
EXTT14=
EXTT15=
EXTT16=
EXTT17=
PLAYORDER=
